<svg xmlns="http://www.w3.org/2000/svg" width="148.952" height="27.5"><path fill="#fff" fill-rule="evenodd" d="M112.853 7.9a8.527 8.527 0 0 1 1.525-1.063c3.3-1.814 8.505-1.792 13.1 1.043l-2.158 5.566a10.636 10.636 0 0 0-5.185-1.763c-1.224-.053-1.8 1.242.264 1.624a10.577 10.577 0 0 1 4.99 2.017 6.406 6.406 0 0 1-1.655 10.652c-3.294 1.71-9.965 1.389-14.318-1.5l2.238-5.493s3.457 2.384 6.345 2.285c1.224-.041 1.794-1.441-.264-1.823a10.58 10.58 0 0 1-5.011-1.957A6.319 6.319 0 0 1 112.743 8h-7.862v18.641h-8.644V13.893h-4.8V6.274h13.34V0h8.074ZM0 26.641V6.274h8.786V26.64H0ZM13.179 6.274h9.762l-4.718 10.1 5.084 10.264h-9.924l-4.6-10.264 4.393-10.1ZM21.827 16.5a11.162 11.162 0 1 1 11.161 11 11.081 11.081 0 0 1-11.161-11Zm11.161 2.89a2.892 2.892 0 1 0-2.933-2.89 2.912 2.912 0 0 0 2.933 2.89ZM44.5 26.643l3.172-20.368h7.81l2.6 7.818 2.6-7.818h7.891l3.051 18.6 6.547-18.6h8.46l7.239 20.366h-9.03l-2.4-9.461-2.439 9.461H63.778L62.72 19.5l-2.2 7.136h-4.877L53.529 19.5l-1.3 7.136H44.5Zm85.173-20.368h8.582V18.7a1.078 1.078 0 0 0 2.156 0V6.274h8.541v13.471c0 .642 0 7.176-9.559 7.176-9.721 0-9.721-6.536-9.721-7.176V6.274Z" data-name="Path 83"/></svg>